<svg width="16" height="16" viewBox="0 0 16 16" fill="none" xmlns="http://www.w3.org/2000/svg">
<path fill-rule="evenodd" clip-rule="evenodd" d="M1.3335 8.00004C1.3335 7.63185 1.63197 7.33337 2.00016 7.33337H14.0002C14.3684 7.33337 14.6668 7.63185 14.6668 8.00004C14.6668 8.36823 14.3684 8.66671 14.0002 8.66671H2.00016C1.63197 8.66671 1.3335 8.36823 1.3335 8.00004Z" fill="#A7A7A7"/>
<path fill-rule="evenodd" clip-rule="evenodd" d="M1.3335 4.00004C1.3335 3.63185 1.63197 3.33337 2.00016 3.33337H14.0002C14.3684 3.33337 14.6668 3.63185 14.6668 4.00004C14.6668 4.36823 14.3684 4.66671 14.0002 4.66671H2.00016C1.63197 4.66671 1.3335 4.36823 1.3335 4.00004Z" fill="#A7A7A7"/>
<path fill-rule="evenodd" clip-rule="evenodd" d="M1.3335 12C1.3335 11.6319 1.63197 11.3334 2.00016 11.3334H14.0002C14.3684 11.3334 14.6668 11.6319 14.6668 12C14.6668 12.3682 14.3684 12.6667 14.0002 12.6667H2.00016C1.63197 12.6667 1.3335 12.3682 1.3335 12Z" fill="#A7A7A7"/>
</svg>
