<svg width="16" height="16" viewBox="0 0 16 16" fill="none" xmlns="http://www.w3.org/2000/svg">
<path fill-rule="evenodd" clip-rule="evenodd" d="M1.33325 8.00004C1.33325 7.63185 1.63173 7.33337 1.99992 7.33337H13.9999C14.3681 7.33337 14.6666 7.63185 14.6666 8.00004C14.6666 8.36823 14.3681 8.66671 13.9999 8.66671H1.99992C1.63173 8.66671 1.33325 8.36823 1.33325 8.00004Z" fill="white"/>
<path fill-rule="evenodd" clip-rule="evenodd" d="M1.33325 4.00004C1.33325 3.63185 1.63173 3.33337 1.99992 3.33337H13.9999C14.3681 3.33337 14.6666 3.63185 14.6666 4.00004C14.6666 4.36823 14.3681 4.66671 13.9999 4.66671H1.99992C1.63173 4.66671 1.33325 4.36823 1.33325 4.00004Z" fill="white"/>
<path fill-rule="evenodd" clip-rule="evenodd" d="M1.33325 12C1.33325 11.6319 1.63173 11.3334 1.99992 11.3334H13.9999C14.3681 11.3334 14.6666 11.6319 14.6666 12C14.6666 12.3682 14.3681 12.6667 13.9999 12.6667H1.99992C1.63173 12.6667 1.33325 12.3682 1.33325 12Z" fill="white"/>
</svg>
