<svg width="12" height="12" viewBox="0 0 12 12" fill="none" xmlns="http://www.w3.org/2000/svg">
<path fill-rule="evenodd" clip-rule="evenodd" d="M0.545455 0C0.244208 0 0 0.244208 0 0.545455V4.90909C0 5.21034 0.244208 5.45455 0.545455 5.45455H4.90909C5.21034 5.45455 5.45455 5.21034 5.45455 4.90909V0.545455C5.45455 0.244208 5.21034 0 4.90909 0H0.545455ZM1.09091 4.36364V1.09091H4.36364V4.36364H1.09091ZM7.09091 0C6.78966 0 6.54545 0.244208 6.54545 0.545455V4.90909C6.54545 5.21034 6.78966 5.45455 7.09091 5.45455H11.4545C11.7558 5.45455 12 5.21034 12 4.90909V0.545455C12 0.244208 11.7558 0 11.4545 0H7.09091ZM7.63636 4.36364V1.09091H10.9091V4.36364H7.63636ZM0 7.09091C0 6.78966 0.244208 6.54545 0.545455 6.54545H4.90909C5.21034 6.54545 5.45455 6.78966 5.45455 7.09091V11.4545C5.45455 11.7558 5.21034 12 4.90909 12H0.545455C0.244208 12 0 11.7558 0 11.4545V7.09091ZM1.09091 7.63636V10.9091H4.36364V7.63636H1.09091ZM7.09091 6.54545C6.78966 6.54545 6.54545 6.78966 6.54545 7.09091V11.4545C6.54545 11.7558 6.78966 12 7.09091 12H11.4545C11.7558 12 12 11.7558 12 11.4545V7.09091C12 6.78966 11.7558 6.54545 11.4545 6.54545H7.09091ZM7.63636 10.9091V7.63636H10.9091V10.9091H7.63636Z" fill="white"/>
</svg>
