<svg width="104" height="16" viewBox="0 0 104 16" fill="none" xmlns="http://www.w3.org/2000/svg">
<path d="M7.71161 1.52503C7.81827 1.26949 8.18156 1.26949 8.28823 1.52503L9.90888 5.40782C9.95384 5.51555 10.0555 5.58916 10.1722 5.59848L14.3788 5.93454C14.6557 5.95665 14.768 6.30095 14.557 6.481L11.352 9.21675C11.2631 9.29265 11.2243 9.41176 11.2514 9.52525L12.2306 13.6157C12.2951 13.8849 12.0012 14.0977 11.7641 13.9535L8.16268 11.7615C8.06276 11.7006 7.93708 11.7006 7.83716 11.7615L4.23571 13.9535C3.99868 14.0977 3.70477 13.8849 3.76922 13.6157L4.74839 9.52525C4.77556 9.41176 4.73673 9.29265 4.6478 9.21675L1.44281 6.481C1.23187 6.30095 1.34413 5.95665 1.62099 5.93454L5.8276 5.59848C5.94432 5.58916 6.04599 5.51555 6.09096 5.40782L7.71161 1.52503Z" fill="#FFBC1F"/>
<path d="M29.7116 1.52503C29.8183 1.26949 30.1816 1.26949 30.2882 1.52503L31.9089 5.40782C31.9538 5.51555 32.0555 5.58916 32.1722 5.59848L36.3788 5.93454C36.6557 5.95665 36.768 6.30095 36.557 6.481L33.352 9.21675C33.2631 9.29265 33.2243 9.41176 33.2514 9.52525L34.2306 13.6157C34.2951 13.8849 34.0012 14.0977 33.7641 13.9535L30.1627 11.7615C30.0628 11.7006 29.9371 11.7006 29.8372 11.7615L26.2357 13.9535C25.9987 14.0977 25.7048 13.8849 25.7692 13.6157L26.7484 9.52525C26.7756 9.41176 26.7367 9.29265 26.6478 9.21675L23.4428 6.481C23.2319 6.30095 23.3441 5.95665 23.621 5.93454L27.8276 5.59848C27.9443 5.58916 28.046 5.51555 28.091 5.40782L29.7116 1.52503Z" fill="#FFBC1F"/>
<path d="M51.7116 1.52503C51.8183 1.26949 52.1816 1.26949 52.2882 1.52503L53.9089 5.40782C53.9538 5.51555 54.0555 5.58916 54.1722 5.59848L58.3788 5.93454C58.6557 5.95665 58.768 6.30095 58.557 6.481L55.352 9.21675C55.2631 9.29265 55.2243 9.41176 55.2514 9.52525L56.2306 13.6157C56.2951 13.8849 56.0012 14.0977 55.7641 13.9535L52.1627 11.7615C52.0628 11.7006 51.9371 11.7006 51.8372 11.7615L48.2357 13.9535C47.9987 14.0977 47.7048 13.8849 47.7692 13.6157L48.7484 9.52525C48.7756 9.41176 48.7367 9.29265 48.6478 9.21675L45.4428 6.481C45.2319 6.30095 45.3441 5.95665 45.621 5.93454L49.8276 5.59848C49.9443 5.58916 50.046 5.51555 50.091 5.40782L51.7116 1.52503Z" fill="#FFBC1F"/>
<path d="M73.7116 1.52503C73.8183 1.26949 74.1816 1.26949 74.2882 1.52503L75.9089 5.40782C75.9538 5.51555 76.0555 5.58916 76.1722 5.59848L80.3788 5.93454C80.6557 5.95665 80.768 6.30095 80.557 6.481L77.352 9.21675C77.2631 9.29265 77.2243 9.41176 77.2514 9.52525L78.2306 13.6157C78.2951 13.8849 78.0012 14.0977 77.7641 13.9535L74.1627 11.7615C74.0628 11.7006 73.9371 11.7006 73.8372 11.7615L70.2357 13.9535C69.9987 14.0977 69.7048 13.8849 69.7692 13.6157L70.7484 9.52525C70.7756 9.41176 70.7367 9.29265 70.6478 9.21675L67.4428 6.481C67.2319 6.30095 67.3441 5.95665 67.621 5.93454L71.8276 5.59848C71.9443 5.58916 72.046 5.51555 72.091 5.40782L73.7116 1.52503Z" fill="#FFBC1F"/>
<path d="M94.5524 5.60041L95.9999 2.13237L97.4475 5.60041C97.5649 5.88166 97.8297 6.07271 98.1324 6.0969L101.886 6.39673L99.0274 8.83645C98.7959 9.03409 98.6942 9.34494 98.7652 9.64165L99.639 13.292L96.4226 11.3344C96.163 11.1763 95.8368 11.1763 95.5772 11.3344L92.3608 13.292L93.2347 9.64165C93.3057 9.34494 93.204 9.03409 92.9724 8.83645L90.1142 6.39673L93.8674 6.0969C94.1702 6.07271 94.435 5.88166 94.5524 5.60041Z" stroke="#FFBC1F"/>
</svg>
