<svg width="144" height="24" viewBox="0 0 144 24" fill="none" xmlns="http://www.w3.org/2000/svg">
<path d="M11.5675 2.28749C11.7275 1.90417 12.2725 1.90417 12.4325 2.28749L14.8634 8.11167C14.9309 8.27326 15.0834 8.38368 15.2585 8.39766L21.5684 8.90174C21.9837 8.93492 22.1521 9.45136 21.8357 9.72144L17.0282 13.8251C16.8948 13.9389 16.8365 14.1176 16.8773 14.2878L18.3461 20.4235C18.4427 20.8274 18.0019 21.1465 17.6463 20.9301L12.2441 17.6421C12.0943 17.5509 11.9057 17.5509 11.7559 17.6421L6.35369 20.9301C5.99814 21.1465 5.55728 20.8274 5.65395 20.4235L7.12271 14.2878C7.16347 14.1176 7.10521 13.9389 6.97182 13.8251L2.16433 9.72144C1.84793 9.45136 2.01632 8.93492 2.43161 8.90174L8.74153 8.39766C8.9166 8.38368 9.06911 8.27326 9.13656 8.11167L11.5675 2.28749Z" fill="#FFBC1F"/>
<path d="M41.5675 2.28749C41.7275 1.90417 42.2725 1.90417 42.4325 2.28749L44.8634 8.11167C44.9309 8.27326 45.0834 8.38368 45.2585 8.39766L51.5684 8.90174C51.9837 8.93492 52.1521 9.45136 51.8357 9.72144L47.0282 13.8251C46.8948 13.9389 46.8365 14.1176 46.8773 14.2878L48.3461 20.4235C48.4427 20.8274 48.0019 21.1465 47.6463 20.9301L42.2441 17.6421C42.0943 17.5509 41.9057 17.5509 41.7559 17.6421L36.3537 20.9301C35.9981 21.1465 35.5573 20.8274 35.6539 20.4235L37.1227 14.2878C37.1635 14.1176 37.1052 13.9389 36.9718 13.8251L32.1643 9.72144C31.8479 9.45136 32.0163 8.93492 32.4316 8.90174L38.7415 8.39766C38.9166 8.38368 39.0691 8.27326 39.1366 8.11167L41.5675 2.28749Z" fill="#FFBC1F"/>
<path d="M71.5675 2.28749C71.7275 1.90417 72.2725 1.90417 72.4325 2.28749L74.8634 8.11167C74.9309 8.27326 75.0834 8.38368 75.2585 8.39766L81.5684 8.90174C81.9837 8.93492 82.1521 9.45136 81.8357 9.72144L77.0282 13.8251C76.8948 13.9389 76.8365 14.1176 76.8773 14.2878L78.3461 20.4235C78.4427 20.8274 78.0019 21.1465 77.6463 20.9301L72.2441 17.6421C72.0943 17.5509 71.9057 17.5509 71.7559 17.6421L66.3537 20.9301C65.9981 21.1465 65.5573 20.8274 65.6539 20.4235L67.1227 14.2878C67.1635 14.1176 67.1052 13.9389 66.9718 13.8251L62.1643 9.72144C61.8479 9.45136 62.0163 8.93492 62.4316 8.90174L68.7415 8.39766C68.9166 8.38368 69.0691 8.27326 69.1366 8.11167L71.5675 2.28749Z" fill="#FFBC1F"/>
<path d="M101.568 2.28749C101.728 1.90417 102.272 1.90417 102.432 2.28749L104.863 8.11167C104.931 8.27326 105.083 8.38368 105.258 8.39766L111.568 8.90174C111.984 8.93492 112.152 9.45136 111.836 9.72144L107.028 13.8251C106.895 13.9389 106.837 14.1176 106.877 14.2878L108.346 20.4235C108.443 20.8274 108.002 21.1465 107.646 20.9301L102.244 17.6421C102.094 17.5509 101.906 17.5509 101.756 17.6421L96.3537 20.9301C95.9981 21.1465 95.5573 20.8274 95.6539 20.4235L97.1227 14.2878C97.1635 14.1176 97.1052 13.9389 96.9718 13.8251L92.1643 9.72144C91.8479 9.45136 92.0163 8.93492 92.4316 8.90174L98.7415 8.39766C98.9166 8.38368 99.0691 8.27326 99.1366 8.11167L101.568 2.28749Z" fill="#FFBC1F"/>
<path d="M131.568 2.28749C131.728 1.90417 132.272 1.90417 132.432 2.28749L134.863 8.11167C134.931 8.27326 135.083 8.38368 135.258 8.39766L141.568 8.90174C141.984 8.93492 142.152 9.45136 141.836 9.72144L137.028 13.8251C136.895 13.9389 136.837 14.1176 136.877 14.2878L138.346 20.4235C138.443 20.8274 138.002 21.1465 137.646 20.9301L132.244 17.6421C132.094 17.5509 131.906 17.5509 131.756 17.6421L126.354 20.9301C125.998 21.1465 125.557 20.8274 125.654 20.4235L127.123 14.2878C127.163 14.1176 127.105 13.9389 126.972 13.8251L122.164 9.72144C121.848 9.45136 122.016 8.93492 122.432 8.90174L128.742 8.39766C128.917 8.38368 129.069 8.27326 129.137 8.11167L131.568 2.28749Z" fill="#FFBC1F"/>
</svg>
