<svg width="168" height="24" viewBox="0 0 168 24" fill="none" xmlns="http://www.w3.org/2000/svg">
<path d="M11.5675 2.28749C11.7275 1.90417 12.2725 1.90417 12.4325 2.28749L14.8634 8.11167C14.9309 8.27326 15.0834 8.38368 15.2585 8.39766L21.5684 8.90174C21.9837 8.93492 22.1521 9.45136 21.8357 9.72144L17.0282 13.8251C16.8948 13.9389 16.8365 14.1176 16.8773 14.2878L18.3461 20.4235C18.4427 20.8274 18.0019 21.1465 17.6463 20.9301L12.2441 17.6421C12.0943 17.5509 11.9057 17.5509 11.7559 17.6421L6.35369 20.9301C5.99814 21.1465 5.55728 20.8274 5.65395 20.4235L7.12271 14.2878C7.16347 14.1176 7.10521 13.9389 6.97182 13.8251L2.16433 9.72144C1.84793 9.45136 2.01632 8.93492 2.43161 8.90174L8.74153 8.39766C8.9166 8.38368 9.06911 8.27326 9.13656 8.11167L11.5675 2.28749Z" fill="#FFBC1F"/>
<path d="M47.5675 2.28749C47.7275 1.90417 48.2725 1.90417 48.4325 2.28749L50.8634 8.11167C50.9309 8.27326 51.0834 8.38368 51.2585 8.39766L57.5684 8.90174C57.9837 8.93492 58.1521 9.45136 57.8357 9.72144L53.0282 13.8251C52.8948 13.9389 52.8365 14.1176 52.8773 14.2878L54.3461 20.4235C54.4427 20.8274 54.0019 21.1465 53.6463 20.9301L48.2441 17.6421C48.0943 17.5509 47.9057 17.5509 47.7559 17.6421L42.3537 20.9301C41.9981 21.1465 41.5573 20.8274 41.6539 20.4235L43.1227 14.2878C43.1635 14.1176 43.1052 13.9389 42.9718 13.8251L38.1643 9.72144C37.8479 9.45136 38.0163 8.93492 38.4316 8.90174L44.7415 8.39766C44.9166 8.38368 45.0691 8.27326 45.1366 8.11167L47.5675 2.28749Z" fill="#FFBC1F"/>
<path d="M83.5675 2.28749C83.7275 1.90417 84.2725 1.90417 84.4325 2.28749L86.8634 8.11167C86.9309 8.27326 87.0834 8.38368 87.2585 8.39766L93.5684 8.90174C93.9837 8.93492 94.1521 9.45136 93.8357 9.72144L89.0282 13.8251C88.8948 13.9389 88.8365 14.1176 88.8773 14.2878L90.3461 20.4235C90.4427 20.8274 90.0019 21.1465 89.6463 20.9301L84.2441 17.6421C84.0943 17.5509 83.9057 17.5509 83.7559 17.6421L78.3537 20.9301C77.9981 21.1465 77.5573 20.8274 77.6539 20.4235L79.1227 14.2878C79.1635 14.1176 79.1052 13.9389 78.9718 13.8251L74.1643 9.72144C73.8479 9.45136 74.0163 8.93492 74.4316 8.90174L80.7415 8.39766C80.9166 8.38368 81.0691 8.27326 81.1366 8.11167L83.5675 2.28749Z" fill="#FFBC1F"/>
<path d="M119.568 2.28749C119.728 1.90417 120.272 1.90417 120.432 2.28749L122.863 8.11167C122.931 8.27326 123.083 8.38368 123.258 8.39766L129.568 8.90174C129.984 8.93492 130.152 9.45136 129.836 9.72144L125.028 13.8251C124.895 13.9389 124.837 14.1176 124.877 14.2878L126.346 20.4235C126.443 20.8274 126.002 21.1465 125.646 20.9301L120.244 17.6421C120.094 17.5509 119.906 17.5509 119.756 17.6421L114.354 20.9301C113.998 21.1465 113.557 20.8274 113.654 20.4235L115.123 14.2878C115.163 14.1176 115.105 13.9389 114.972 13.8251L110.164 9.72144C109.848 9.45136 110.016 8.93492 110.432 8.90174L116.742 8.39766C116.917 8.38368 117.069 8.27326 117.137 8.11167L119.568 2.28749Z" fill="#FFBC1F"/>
<path d="M153.598 8.30426L156 2.54946L158.402 8.30426C158.542 8.63938 158.858 8.86723 159.219 8.89608L165.449 9.39383L160.704 13.4448C160.428 13.6804 160.306 14.0508 160.391 14.4042L161.842 20.4636L156.504 17.215C156.195 17.0266 155.805 17.0266 155.496 17.215L150.158 20.4636L151.609 14.4042C151.694 14.0508 151.572 13.6804 151.296 13.4448L146.551 9.39383L152.781 8.89608C153.142 8.86723 153.458 8.63938 153.598 8.30426Z" stroke="#FFBC1F"/>
</svg>
