<svg width="218" height="34" viewBox="0 0 218 34" fill="none" xmlns="http://www.w3.org/2000/svg">
<path d="M17.5858 25.3317L24.2843 29.5755C25.1405 30.118 26.2036 29.3112 25.9495 28.3117L24.0142 20.6986C23.9597 20.4866 23.9662 20.2634 24.0328 20.0549C24.0995 19.8464 24.2237 19.6609 24.3911 19.5198L30.3978 14.5202C31.1871 13.8633 30.7797 12.5535 29.7657 12.4876L21.9213 11.9785C21.71 11.9634 21.5073 11.8886 21.3369 11.7628C21.1665 11.637 21.0353 11.4654 20.9586 11.2679L18.033 3.90041C17.9535 3.69081 17.8121 3.51036 17.6276 3.38303C17.4431 3.25569 17.2242 3.1875 17 3.1875C16.7758 3.1875 16.557 3.25569 16.3724 3.38303C16.1879 3.51036 16.0465 3.69081 15.967 3.90041L13.0414 11.2679C12.9647 11.4654 12.8335 11.637 12.6631 11.7628C12.4927 11.8886 12.29 11.9634 12.0788 11.9785L4.23433 12.4876C3.2203 12.5535 2.81293 13.8633 3.60219 14.5202L9.60894 19.5198C9.77634 19.6609 9.90051 19.8464 9.96718 20.0549C10.0338 20.2634 10.0403 20.4866 9.98581 20.6986L8.191 27.7589C7.88611 28.9583 9.1618 29.9265 10.1893 29.2755L16.4142 25.3317C16.5892 25.2202 16.7925 25.161 17 25.161C17.2075 25.161 17.4108 25.2202 17.5858 25.3317V25.3317Z" stroke="#FFBC1F" stroke-linecap="round" stroke-linejoin="round"/>
<path d="M63.5858 25.3317L70.2843 29.5755C71.1405 30.118 72.2036 29.3112 71.9495 28.3117L70.0142 20.6986C69.9597 20.4866 69.9662 20.2634 70.0328 20.0549C70.0995 19.8464 70.2237 19.6609 70.3911 19.5198L76.3978 14.5202C77.1871 13.8633 76.7797 12.5535 75.7657 12.4876L67.9213 11.9785C67.71 11.9634 67.5073 11.8886 67.3369 11.7628C67.1665 11.637 67.0353 11.4654 66.9586 11.2679L64.033 3.90041C63.9535 3.69081 63.8121 3.51036 63.6276 3.38303C63.4431 3.25569 63.2242 3.1875 63 3.1875C62.7758 3.1875 62.557 3.25569 62.3724 3.38303C62.1879 3.51036 62.0465 3.69081 61.967 3.90041L59.0414 11.2679C58.9647 11.4654 58.8335 11.637 58.6631 11.7628C58.4927 11.8886 58.29 11.9634 58.0788 11.9785L50.2343 12.4876C49.2203 12.5535 48.8129 13.8633 49.6022 14.5202L55.6089 19.5198C55.7763 19.6609 55.9005 19.8464 55.9672 20.0549C56.0338 20.2634 56.0403 20.4866 55.9858 20.6986L54.191 27.7589C53.8861 28.9583 55.1618 29.9265 56.1893 29.2755L62.4142 25.3317C62.5892 25.2202 62.7925 25.161 63 25.161C63.2075 25.161 63.4108 25.2202 63.5858 25.3317V25.3317Z" stroke="#FFBC1F" stroke-linecap="round" stroke-linejoin="round"/>
<path d="M109.586 25.3317L116.284 29.5755C117.141 30.118 118.204 29.3112 117.95 28.3117L116.014 20.6986C115.96 20.4866 115.966 20.2634 116.033 20.0549C116.099 19.8464 116.224 19.6609 116.391 19.5198L122.398 14.5202C123.187 13.8633 122.78 12.5535 121.766 12.4876L113.921 11.9785C113.71 11.9634 113.507 11.8886 113.337 11.7628C113.166 11.637 113.035 11.4654 112.959 11.2679L110.033 3.90041C109.953 3.69081 109.812 3.51036 109.628 3.38303C109.443 3.25569 109.224 3.1875 109 3.1875C108.776 3.1875 108.557 3.25569 108.372 3.38303C108.188 3.51036 108.047 3.69081 107.967 3.90041L105.041 11.2679C104.965 11.4654 104.834 11.637 104.663 11.7628C104.493 11.8886 104.29 11.9634 104.079 11.9785L96.2343 12.4876C95.2203 12.5535 94.8129 13.8633 95.6022 14.5202L101.609 19.5198C101.776 19.6609 101.901 19.8464 101.967 20.0549C102.034 20.2634 102.04 20.4866 101.986 20.6986L100.191 27.7589C99.8861 28.9583 101.162 29.9265 102.189 29.2755L108.414 25.3317C108.589 25.2202 108.792 25.161 109 25.161C109.208 25.161 109.411 25.2202 109.586 25.3317V25.3317Z" stroke="#FFBC1F" stroke-linecap="round" stroke-linejoin="round"/>
<path d="M155.586 25.3317L162.284 29.5755C163.141 30.118 164.204 29.3112 163.95 28.3117L162.014 20.6986C161.96 20.4866 161.966 20.2634 162.033 20.0549C162.099 19.8464 162.224 19.6609 162.391 19.5198L168.398 14.5202C169.187 13.8633 168.78 12.5535 167.766 12.4876L159.921 11.9785C159.71 11.9634 159.507 11.8886 159.337 11.7628C159.166 11.637 159.035 11.4654 158.959 11.2679L156.033 3.90041C155.953 3.69081 155.812 3.51036 155.628 3.38303C155.443 3.25569 155.224 3.1875 155 3.1875C154.776 3.1875 154.557 3.25569 154.372 3.38303C154.188 3.51036 154.047 3.69081 153.967 3.90041L151.041 11.2679C150.965 11.4654 150.834 11.637 150.663 11.7628C150.493 11.8886 150.29 11.9634 150.079 11.9785L142.234 12.4876C141.22 12.5535 140.813 13.8633 141.602 14.5202L147.609 19.5198C147.776 19.6609 147.901 19.8464 147.967 20.0549C148.034 20.2634 148.04 20.4866 147.986 20.6986L146.191 27.7589C145.886 28.9583 147.162 29.9265 148.189 29.2755L154.414 25.3317C154.589 25.2202 154.792 25.161 155 25.161C155.208 25.161 155.411 25.2202 155.586 25.3317V25.3317Z" stroke="#FFBC1F" stroke-linecap="round" stroke-linejoin="round"/>
<path d="M201.586 25.3317L208.284 29.5755C209.141 30.118 210.204 29.3112 209.95 28.3117L208.014 20.6986C207.96 20.4866 207.966 20.2634 208.033 20.0549C208.099 19.8464 208.224 19.6609 208.391 19.5198L214.398 14.5202C215.187 13.8633 214.78 12.5535 213.766 12.4876L205.921 11.9785C205.71 11.9634 205.507 11.8886 205.337 11.7628C205.166 11.637 205.035 11.4654 204.959 11.2679L202.033 3.90041C201.953 3.69081 201.812 3.51036 201.628 3.38303C201.443 3.25569 201.224 3.1875 201 3.1875C200.776 3.1875 200.557 3.25569 200.372 3.38303C200.188 3.51036 200.047 3.69081 199.967 3.90041L197.041 11.2679C196.965 11.4654 196.834 11.637 196.663 11.7628C196.493 11.8886 196.29 11.9634 196.079 11.9785L188.234 12.4876C187.22 12.5535 186.813 13.8633 187.602 14.5202L193.609 19.5198C193.776 19.6609 193.901 19.8464 193.967 20.0549C194.034 20.2634 194.04 20.4866 193.986 20.6986L192.191 27.7589C191.886 28.9583 193.162 29.9265 194.189 29.2755L200.414 25.3317C200.589 25.2202 200.792 25.161 201 25.161C201.208 25.161 201.411 25.2202 201.586 25.3317V25.3317Z" stroke="#FFBC1F" stroke-linecap="round" stroke-linejoin="round"/>
</svg>
